<?xml version="1.0" encoding="utf-8"?>
<svg version="1.1" 
	id="Layer_1" 
	xmlns="http://www.w3.org/2000/svg" 
	xmlns:xlink="http://www.w3.org/1999/xlink" 
	x="0px" 
	y="0px"
	viewBox="0 0 216 216" 
	style="enable-background:new 0 0 216 216;" 
	xml:space="preserve">
	<style type="text/css">
		.st0{fill:#C1827A;}
		.st1{fill:#5A2620;}
		.st2{fill:#C4BC99;}
	</style>
	<g>
		<path id="logo1" class="st0 f1" d="M124.8,121.6c0,0-40.3-43.7-70.3-21.6c0,0-89,71-20.1,90.9C34.5,190.8,195.8,210.7,124.8,121.6z"/>
		<path id="logo2" class="st1 f2" d="M172.1,45.6c-0.1,0-0.3,0-0.4,0c-2.6,0.1-5.1-0.6-7.6-1.5c-1.3-0.5-2.5-1-3.8-1.5c-1.7-0.6-3.4-1-5.3-1
			c0.5-0.5,1.1-0.9,1.6-1.1c3.2-1.6,6.4-1.7,9.7-0.4c0.2,0.1,0.4,0.2,0.6,0.3c-13.5-12.4-31-21.8-37.4-24.1c0,0-24-8.8-41,5
			S58.5,53.9,61.8,66.7c1.1,4.3,3.7,11.8,7.9,19.7c2.9-0.5,5.8-0.2,8.7,0.8c2.3,0.8,4.5,1.6,6.9,1.9c0.5,0.1,1,0.1,1.6,0.1
			c-0.9,0.9-2,1.5-3.1,1.9c-3.1,1-6.1,0.7-9-0.4c-1.1-0.4-2.2-0.9-3.3-1.3c8.4,14.5,22.3,29,42.8,26.4c33.1-4.3,62-12.1,69.5-39.3
			C186.6,65.9,180.9,55.1,172.1,45.6z M153,34.7C153,34.7,153,34.7,153,34.7c0.2-0.1,0.4,0,0.5,0.1c1.9,0.7,3.3,2,4.5,3.7
			c0.2,0.3,0.2,0.4-0.2,0.5c-0.8,0.2-1.5,0.6-2.1,1c-0.2,0.1-0.4,0.2-0.4-0.1C154.9,37.9,154.2,36.2,153,34.7
			C153,34.7,153,34.7,153,34.7L153,34.7C153,34.7,153,34.7,153,34.7C152.9,34.7,152.9,34.7,153,34.7C152.9,34.7,152.9,34.7,153,34.7z
			M146.2,32.4c4.6,0.6,7.4,3.5,8.2,8.1c0,0.2,0,0.4-0.2,0.6c-0.5,0.6-1.1,1-2,1c-0.2,0-0.4,0.1-0.6,0.1c-1,0.2-1,0.2-1.4-0.8
			c-0.6-1.7-1.4-3.3-2.5-4.8c-1.3-1.7-3-2.9-5.1-3.5c-0.1,0-0.3,0-0.4-0.2C143.5,32.3,144.8,32.2,146.2,32.4z M136.7,34
			c2.9-0.7,5.7-0.5,8.2,1.2c1.9,1.2,3.1,3.1,3.9,5.1c0.3,0.8,0.7,1.5,0.9,2.4c-1.2-0.2-2.3-0.7-3.2-1.3c-1.9-1.3-3.9-2.4-6-3.4
			c-2.6-1.2-5.3-1.7-8.1-1.3c0,0-0.1,0-0.2,0C133.4,35.2,135,34.5,136.7,34z M156.3,56.3c0.9-1.9,1.9-3.8,2.8-5.7
			c0.2-0.4,0.6-0.6,0.9-0.9c0.6-0.8,1.5-1.1,2.5-1.1c1.1,0,1.1-0.1,1.1,1.1c-0.1,2.8-1.2,5-3.1,7c-1.4,1.6-3.2,2.8-5,3.9
			c-0.1,0.1-0.2,0.1-0.3,0.1C155.1,59.1,155.6,57.7,156.3,56.3z M155.4,52.3c-0.1-0.2,0.1-0.3,0.3-0.4c0.7-0.2,1.3-0.4,2.1-0.7
			c-0.5,1-1,1.9-1.4,2.8c-0.1,0.3-0.2,0.1-0.3,0C155.8,53.4,155.6,52.8,155.4,52.3z M157.7,50.2c-2.5,1.2-5.2,1.4-7.9,1.3
			c-1.5-0.1-3-0.2-4.5-0.3c-2-0.1-3.9,0-5.9,0.7c1-1.5,2.1-2.5,3.5-3.3c3-1.8,6.2-1.9,9.5-1.2c2,0.4,4,1,6,1.2
			c0.4,0.1,0.8,0.1,1.3,0.2C159.1,49.3,158.4,49.8,157.7,50.2z M136,63.9C136,63.9,136,63.9,136,63.9L136,63.9
			C136,63.9,136,63.9,136,63.9c0.5-0.3,1.1-0.3,1.7-0.4c0.8-0.2,1.5-0.4,2.3-0.6c-0.2,0.5-0.5,1-0.7,1.4c-0.1,0.2-0.3,0.1-0.4,0.1
			c-0.5,0-1.1-0.1-1.6,0.1C136.7,64.6,136.3,64.4,136,63.9C136,63.9,136,63.9,136,63.9L136,63.9C136,63.9,136,63.9,136,63.9z M135,63
			c-0.2,0-0.3,0.1-0.5,0c-1.5-0.9-3-1.4-4.9-1.5c1.6-1.5,3.3-2.5,5.2-3c1.9-0.5,3.8-0.7,5.7-0.8c1.8-0.1,3.7-0.3,5.5-0.7
			c-0.2,0.6-0.6,1-0.9,1.4c-1.3,1.6-3.1,2.5-4.9,3.3C138.6,62.4,136.8,62.8,135,63z M141.7,56.7c-2.2,0.1-4.3,0.2-6.4,0.7
			c-0.8,0.2-1.7,0.4-2.6,0.8c0.1-0.4,0.3-0.7,0.5-0.9c1.4-2,3.2-3.3,5.4-4.2c1.9-0.8,3.8-1.1,5.9-1c2.6,0.1,5.2,0.5,7.9,0.3
			c-0.9,1.1-1.9,1.8-3,2.4C147,56.1,144.4,56.5,141.7,56.7z M129.2,38.6c3.2-1.6,6.4-1.5,9.7-0.3c1.8,0.6,3.4,1.5,5.1,2.5
			c0.3,0.2,0.5,0.3,0,0.5c-1.3,0.7-2.7,0.8-4.1,0.9c-2,0.1-3.9-0.1-5.8-0.2c-3-0.3-6-0.6-9,0.6C126,40.8,127.4,39.5,129.2,38.6z
			M120.5,46.8c2.6-2.7,5.7-4.2,9.5-4.2c2.6,0,5.1,0.3,7.6,0.5c0,0,0.1,0,0.2,0.1c-0.7,0.8-1.4,1.4-2.3,1.9c-2.3,1.3-4.8,1.8-7.4,2.2
			c-2,0.3-4.1,0.5-6,1.1c-1.1,0.4-2.1,0.8-3.2,1.3C119.1,48.6,119.7,47.7,120.5,46.8z M115.9,53.3c1.9-2.1,4.3-3.3,7-4.1
			c2.1-0.6,4.2-0.7,6.3-1.1c0.9-0.2,1.8-0.4,2.8-0.5c-0.5,1.1-1.2,2-2,2.7c-1.6,1.4-3.4,2.3-5.4,3.1c-2.3,0.9-4.6,1.3-7,1.8
			c-0.1,0-0.1,0-0.2,0c-0.9,0.4-1.9,0.3-2.8,0C114.8,54.5,115.3,53.9,115.9,53.3z M126.6,53.5c-0.6,1.9-1.8,3.3-3.1,4.5
			c-0.4,0.3-0.8,0.4-1.3,0.4c-0.9,0-1.6-0.3-2.2-0.8c-0.6-0.6-1.4-0.9-2.3-1.4C120.7,55.5,123.7,55,126.6,53.5z M116.2,56.6
			c2.7,0.9,4.7,2.8,6.3,5c0.7,1,1.3,2,1.8,3.1c1,2.1,2.1,4.2,3.7,5.9c0.1,0,0.1,0,0.1,0.1c0,0-0.1,0-0.1,0c-1.5-0.1-2.9-0.6-4.2-1.4
			c-2.2-1.3-3.8-3.2-5.1-5.3c-0.9-1.5-1.7-3.2-2.7-4.7c-0.7-1.1-1.6-2.2-2.7-3.2C114.4,56.2,115.3,56.3,116.2,56.6z M124.4,70.9
			c-0.9,0.4-1.8,0.6-2.7,1.2c0.2-0.8,0.6-1.4,1-1.9c0.1-0.2,0.2-0.1,0.3,0C123.4,70.3,123.9,70.6,124.4,70.9z M107,54.1
			c3.4,0.6,5.9,2.7,7.8,5.4c1.2,1.6,1.9,3.5,3,5.2c0.7,1,1.3,2.1,2.1,3c0.1,0.1,0.1,0.1,0.2,0.3c-1.4-0.1-2.7-0.6-3.9-1.3
			c-2.6-1.5-4.7-3.6-6.3-6.2c-1.1-1.8-2.3-3.5-3.9-4.9c-0.5-0.5-1.1-0.8-1.6-1.3C105.4,53.9,106.2,53.9,107,54.1z M86.7,72.6
			c-1.3,1.2-2.7,2.4-3.7,4c-0.8,1.3-1.3,2.7-1.5,4.2c0,0.1,0,0.2,0,0.3c0,0.2-0.2,0.3-0.3,0.3c-0.2,0-0.2-0.2-0.3-0.3
			c-0.8-1.7-1.2-3.4-0.9-5.3c0.6-3.8,2.7-6.4,6.3-7.9c2-0.8,4.1-1.3,6.3-1.7c-0.3,0.9-0.9,1.6-1.5,2.3C89.8,69.9,88.2,71.2,86.7,72.6z
			M88.4,77c-0.2,1.3-0.8,1.8-2.1,2c-1.1,0.1-2.1,0.6-3.1,1.1c-0.1,0.1-0.3,0.1-0.5,0.2c0.8-3.9,3.7-6,6.3-8.4
			c0.2,0.2,0.1,0.5,0.1,0.8C89.1,74.1,88.7,75.5,88.4,77z M83.4,80.9c2.7-1.3,5.5-1.7,8.5-1.6c1.4,0.1,2.8,0.4,4.2,0.5
			c2,0.2,4,0.3,6-0.2c-0.1,0.4-0.3,0.6-0.5,0.9c-1.4,1.5-3.2,2.5-5.3,2.9c-2.2,0.5-4.5,0.4-6.7,0c-2.6-0.6-5.2-1.2-7.9-1.4
			C82.3,81.6,82.9,81.2,83.4,80.9z M99.7,79.1c-1,0.1-2,0-3-0.1c-2.4-0.2-4.8-0.8-7.4-0.5c0.8-0.9,1.7-1.6,2.7-2.1
			c2.3-1.2,4.7-1.7,7.3-1.8c2.1-0.1,4.1,0.1,6.2-0.1c1.3-0.1,2.5-0.4,3.9-0.8c-0.5,0.9-1,1.7-1.7,2.3C105.4,78,102.7,78.9,99.7,79.1z
			M102,73.5c-2,0-4,0-6.1,0.3c0.7-1,1.6-1.7,2.6-2.3c2.8-1.7,5.8-2.6,9.1-2.7c2.3-0.1,4.6-0.3,6.8-1c0.3-0.1,0.6-0.2,1-0.3
			c0.1,0.3-0.1,0.5-0.2,0.7c-1.2,2-2.9,3.3-5,4.2C107.5,73.5,104.8,73.6,102,73.5z M102.5,68.6c0.5-0.9,1.1-1.6,1.8-2.3
			c0.7-0.7,1.6-1.3,2.5-1.8c0.3-0.2,0.5-0.2,0.8,0c1.5,0.7,3.1,1.1,4.8,1.1c0.6,0,1.1,0.1,1.5,0.6c0.2,0.2,0.4,0.3,0.6,0.5
			c-1.7,0.6-3.5,0.9-5.2,1c-1.9,0.2-3.8,0.1-5.6,0.6C103.4,68.4,103,68.5,102.5,68.6z M96.2,54c4.2-1.1,7.6,0.3,10.5,3.4
			c1.4,1.5,2.4,3.4,3.6,5.1c0.5,0.7,1.2,1.4,1.9,2.2c-2.7-0.1-5-1.1-7-2.7c-1.6-1.2-3-2.6-4.5-3.9c-1.9-1.7-4.2-2.6-6.7-2.6
			c-0.1,0-0.2,0-0.3,0c0,0,0,0-0.1-0.1C94.4,54.7,95.3,54.2,96.2,54z M89,57.6c3.9-2,7.7-1.6,11.1,1.1c1.6,1.2,3,2.7,4.5,4
			c-0.8,0.2-1.5,0.1-2.2,0.1c-1.7-0.1-3.2-0.7-4.8-1.1c-1.4-0.4-2.8-0.8-4.2-1.1c-2.7-0.6-5.3-0.4-7.8,0.8c-0.1,0-0.2,0.1-0.4,0.1
			C86.1,59.7,87.3,58.5,89,57.6z M83,64.6c2.8-3,6.2-3.8,10.1-3.1c1.5,0.3,2.9,0.7,4.4,1.1c0.1,0,0.3,0,0.3,0.2c-1.1,1-2.5,1.5-3.9,2
			c-1.9,0.7-4,0.9-5.9,1.5c-1.9,0.6-3.8,1.3-5.4,2.6c-0.8,0.7-1.3,1.5-2,2.2c0,0,0,0.1-0.1,0.1c0,0,0-0.1,0-0.1c0,0,0,0,0,0
			C80.3,68.6,81.3,66.4,83,64.6z M83.2,87.7c-1.5-0.4-3-0.9-4.4-1.4c-1.3-0.5-2.7-0.8-4.1-1c-0.1,0-0.2,0-0.3-0.2c3-2,6.2-2.4,9.7-1.9
			c1.8,0.3,3.6,0.7,5.5,1.1c1.6,0.4,3.3,0.5,5,0.3c0.1,0,0.2,0,0.4,0c-0.7,1-1.6,1.6-2.6,2.1C89.4,88.4,86.4,88.5,83.2,87.7z
			M87.2,90.6c-0.1,0-0.2-0.1-0.2-0.2c0.1-0.1,0.2-0.2,0.3-0.3c0.1-0.1,0.2,0.1,0.2,0.2c0.1,0.2,0.2,0.4,0.3,0.6
			C87.5,90.8,87.4,90.7,87.2,90.6z M97.4,94.8C97.4,94.8,97.4,94.8,97.4,94.8c-1.3,0.3-2.6,0-3.8-0.5c-2.4-0.9-4.1-2.5-5.2-4.7
			c-0.2-0.4-0.2-0.6,0.3-0.6c1.2-0.2,2.3-0.4,3.4-0.9c0.2-0.1,0.3-0.1,0.4,0.2c0.9,2.7,2.5,4.8,4.8,6.3C97.3,94.7,97.4,94.7,97.4,94.8
			C97.4,94.8,97.4,94.8,97.4,94.8C97.4,94.8,97.4,94.8,97.4,94.8C97.4,94.8,97.4,94.8,97.4,94.8C97.5,94.8,97.5,94.8,97.4,94.8
			C97.4,94.8,97.4,94.8,97.4,94.8C97.4,94.8,97.4,94.8,97.4,94.8z M104.1,95.3c-4.7,0.3-9.2-2.3-10.8-7.4c-0.1-0.2-0.1-0.3,0.2-0.5
			c0.7-0.4,1.3-0.9,1.8-1.4c0.2-0.2,0.3-0.2,0.6,0c1.4,1.2,2.6,2.6,4,3.8c1.4,1.2,2.8,2.4,4.5,3.1c1.1,0.4,2.1,0.7,3.3,0.9
			c0.1,0,0.2,0,0.4,0.1C106.8,94.7,105.5,95.2,104.1,95.3z M114.2,91.6c-3.5,1.8-7,1.8-10.4-0.1c-2.4-1.3-4.4-3.2-6.2-5.2
			c-0.1,0-0.1,0-0.1-0.1c0,0,0,0,0.1,0c1.1-0.3,2.3-0.1,3.4,0.2c2.4,0.5,4.8,1.3,7.1,2.1c2.7,1,5.5,1.5,8.5,1c0,0,0.1,0,0.1,0
			C116,90.4,115.2,91.1,114.2,91.6z M121.3,86.2c-2.8,2.1-5.9,2.8-9.3,2.2c-2.6-0.4-4.9-1.5-7.4-2.2c0,0,0-0.1-0.1-0.1
			c1.3-0.9,2.8-1.4,4.3-1.7c2.2-0.5,4.4-0.3,6.6-0.3c2.1,0,4.2,0,6.2-0.5c0.8-0.2,1.6-0.5,2.4-0.8C123.4,84.2,122.4,85.4,121.3,86.2z
			M129.2,76.7c-0.9,2-2.5,3.5-4.4,4.6c-2.3,1.3-4.8,1.9-7.4,1.9c-2.2,0-4.4,0-6.7,0.1c1.2-1.4,2.7-2.3,4.3-3.1
			c2.3-1.1,4.7-1.8,7.3-2.1c2.4-0.3,4.7-0.9,6.9-2c0.1,0,0.1,0,0.2-0.1C129.4,76.3,129.3,76.5,129.2,76.7z M123.8,76.7
			c-1.8,0.4-3.6,0.5-5.4,1.1c-0.5,0.2-1,0.3-1.6,0.5c-0.1-0.2,0.1-0.3,0.2-0.5c1.1-2,2.7-3.4,4.6-4.6c1.3-0.8,2.7-1.2,4.1-1.7
			c0.2-0.1,0.5-0.1,0.7,0c0.7,0.2,1.4,0.3,2.1,0.3c0.5,0,0.9,0.2,1.3,0.5c0.5,0.4,1,0.7,1.5,1.1C129.1,75.3,126.5,76.2,123.8,76.7z
			M132.9,73.1c-3.1-1.4-5.2-3.8-6.7-6.8c-1-2.1-2.1-4.2-3.5-6.1c-0.2-0.3-0.5-0.6-0.7-0.9c1.2,0.1,2.3,0.4,3.3,0.9
			c2,1,3.6,2.6,4.9,4.4c0.7,1,1.4,2,1.9,3.1c1.2,2.4,2.8,4.6,5.1,6.4C135.5,74.1,134.2,73.7,132.9,73.1z M143.9,75.1c-4,0-7-1.8-9.2-5
			c-0.7-0.9-1.2-1.9-1.8-3c-0.9-1.6-1.9-3.1-3.1-4.6c0.7-0.1,1.3,0.1,1.8,0.2c1.3,0.3,2.4,0.9,3.5,1.7c2,1.5,3.6,3.4,5.2,5.3
			c1.1,1.3,2.3,2.6,3.8,3.6c0.8,0.5,1.7,0.9,2.7,1.3C145.8,74.9,144.8,75.1,143.9,75.1z M152.8,73.8c-4.2,1-7.7-0.1-10.6-3.3
			c-1.5-1.6-3-3.3-4.5-5c0,0,0-0.1,0-0.1c1.5-0.1,2.9,0.1,4.2,0.7c2.2,0.9,4.2,2.2,6.2,3.5c2.1,1.3,4.4,2.1,7,2.1c0.7,0,1.3-0.1,2-0.3
			C156,72.6,154.5,73.4,152.8,73.8z M162.7,65.4c-2.2,4.2-6.7,6.4-11.8,4.4c-1.6-0.6-3.1-1.6-4.6-2.5c-0.5-0.3-1-0.6-1.6-0.9
			c0.7-0.4,1.4-0.5,2.1-0.7c1.7-0.3,3.4,0,5.1,0.1c2.1,0.2,4.3,0.4,6.4-0.1c1.8-0.4,3.3-1.2,4.6-2.6c0.2-0.2,0.3-0.4,0.5-0.5
			c0-0.1,0-0.1,0.1-0.1c0,0,0,0.1,0,0.1c0,0,0,0,0,0C163.5,63.6,163.2,64.5,162.7,65.4z M160.2,63.9c-0.9,0.5-2,0.8-3,1
			c-1.6,0.3-4.3,0.2-5.8-0.1c0.7-1,1.6-1.7,2.6-2.3c2.1-1.2,4.2-2.4,6.1-4c2.2-1.8,3.6-4,4.3-6.7c0,0,0-0.1,0.1-0.2
			c0.3,0.5,0.4,0.9,0.5,1.4C165.9,57.1,163.9,61.9,160.2,63.9z M163,47.6c-2.6,0.3-5.1-0.1-7.5-0.7c-2.3-0.6-4.7-1.1-7.1-1
			c-0.6,0-1.2,0.1-2,0.2c1.1-1.2,2.4-2,3.8-2.5c3.6-1.3,7-1.1,10.5,0.3c1.9,0.8,3.9,1.6,6,2.1c0.1,0,0.2,0,0.3,0.2
			C165.8,47.1,164.5,47.5,163,47.6z"/>
		<path id="logo3" class="st2 f3" d="M208.9,99.4c0,0-9.3-20.1-26.3-17s-23.2,10.8-26.3,23.2s18.6,29.4,18.6,29.4s6.2,3.1,13.9-1.5
	S210.4,121.1,208.9,99.4z"/>
	</g>
</svg>
